PathFileType	4	(X/Y/Z)	Walk5.trc
DataRate	CameraRate	NumFrames	NumMarkers	Units	OrigDataRate	OrigDataStartFrame	OrigNumFrames
200.000000	200.000000	7	61	mm	200.000000	442	813
Frame#	Times		RCAR		LToe		LMT5		LTB1		RWRU		LLFC		RWRR		RFHD		RACR1		RFA1		LMT1		LUA1		LFA1		LTH2		LElbow		STRN		LACR1		LCAR		LASI		RTH3		RTB2		LWRU		RPSI		RLFC		LFHD		LWRR		C7		LPSI		RToe		RMT1		RMT5		RMFC		CLAV		RTB3		RTB1		LMFC		RTB4		LTH1		LTH3		RTH2		RCAL		RASI		RLMAL		LTB2		RMMAL		LTB4		LBHD		RBHD		RTH4		RBack		LTB3		RUA1		LMMAL		LTH4		RElbow		RTH1		LCAL		T10		LElbowM		LLMAL		RElbowM
			X1	Y1	Z1	X2	Y2	Z2	X3	Y3	Z3	X4	Y4	Z4	X5	Y5	Z5	X6	Y6	Z6	X7	Y7	Z7	X8	Y8	Z8	X9	Y9	Z9	X10	Y10	Z10	X11	Y11	Z11	X12	Y12	Z12	X13	Y13	Z13	X14	Y14	Z14	X15	Y15	Z15	X16	Y16	Z16	X17	Y17	Z17	X18	Y18	Z18	X19	Y19	Z19	X20	Y20	Z20	X21	Y21	Z21	X22	Y22	Z22	X23	Y23	Z23	X24	Y24	Z24	X25	Y25	Z25	X26	Y26	Z26	X27	Y27	Z27	X28	Y28	Z28	X29	Y29	Z29	X30	Y30	Z30	X31	Y31	Z31	X32	Y32	Z32	X33	Y33	Z33	X34	Y34	Z34	X35	Y35	Z35	X36	Y36	Z36	X37	Y37	Z37	X38	Y38	Z38	X39	Y39	Z39	X40	Y40	Z40	X41	Y41	Z41	X42	Y42	Z42	X43	Y43	Z43	X44	Y44	Z44	X45	Y45	Z45	X46	Y46	Z46	X47	Y47	Z47	X48	Y48	Z48	X49	Y49	Z49	X50	Y50	Z50	X51	Y51	Z51	X52	Y52	Z52	X53	Y53	Z53	X54	Y54	Z54	X55	Y55	Z55	X56	Y56	Z56	X57	Y57	Z57	X58	Y58	Z58	X59	Y59	Z59	X60	Y60	Z60	X61	Y61	Z61

442	2.21	-419.33	873.6	385.14	-139.99	124.41	-62.436	-229.36	76.058	-120.41	-415.26	372.62	-26.923	-488.99	888.21	386.42	-518.41	488.89	-123.1	-431.79	916.47	326.06	-485.65	1679.3	125.68	-620.79	1477.8	241.1	-515.66	1032.5	363.71	-190.56	106.57	-42.407	-666.8	1330.3	-212.61	-638.62	1028.2	-271.85	-526.47	728.12	-167.23	-713.55	1163.1	-256.94	-509.05	1275.3	41.923	-645.39	1513.9	-130.02	-605.17	862.29	-288.34	-570.89	1006.7	-115.07	-786.71	645.22	222.89	-849.04	268.22	169.82	-675.62	900.58	-284.28	-801.74	1055	76.133	-815.76	506.9	206.2	-487.37	1686.2	20.779	-598.75	899.45	-231.05	-737.72	1538.2	71.019	-798.36	1052	-32.469	-763.44	28.836	75.931	-812.54	47.509	67.702	-857.85	24.822	162.59	-813.35	505.96	56.59	-572.27	1449.2	40.298	-878.29	195.36	99.227	-810.94	353.65	119.65	-497.41	490.5	18.376	-844.78	274.25	108.58	-610.01	788.86	-182.67	-554.14	624.61	-157.86	-713.37	717.86	236.11	-1033.5	68.537	87.343	-593.24	1021.9	204.04	-968.98	89.292	130.2	-375.1	294.85	-86.835	-930.65	115.69	41.419	-388.44	291.62	-24.948	-654.02	1674.7	3.8357	-655.93	1669.7	145.52	-772.66	726.33	233.08	-787.77	1410	185.62	-358.52	210.94	-24.723	-615.92	1298.4	314.76	-333.01	112.2	14.439	-582.27	706.35	-174.39	-632.12	1136.1	363.86	-756.86	812.47	246.41	-398.92	31.033	-35.706	-782.82	1182.4	29.165	-744.3	1137.4	-171.1	-352.86	77.607	-81.767	-662.44	1102.4	276.3
443	2.215	-415.28	872.62	384.72	-137.23	120.9	-60.966	-226.91	73.692	-119.25	-411.49	371.62	-26.288	-484.89	887.42	385.99	-513.59	488.39	-123.06	-427.61	915.47	325.6	-480.19	1678.9	124.92	-615.32	1477.3	240.35	-511.19	1031.8	363.16	-188	103.47	-41.078	-661.12	1329.4	-213.25	-633.48	1027	-272.23	-520.88	727.86	-167.37	-707.9	1162.2	-257.34	-503.36	1274.8	41.251	-639.7	1513.1	-130.88	-600.75	860.89	-288.65	-565.19	1006.3	-115.58	-782.27	645.11	222.6	-847.05	268.5	169.85	-671.03	899.57	-284.79	-796.05	1054.6	75.509	-811.94	506.95	205.99	-481.84	1685.8	20.025	-594.25	898.03	-231.36	-732.17	1537.6	70.118	-792.77	1051.7	-33.105	-763.48	28.787	75.804	-812.44	47.501	67.779	-857.79	24.803	162.58	-809.7	505.93	56.43	-566.66	1448.7	39.543	-876.97	195.78	99.411	-808.4	353.58	119.58	-493.13	489.94	18.423	-842.85	274.44	108.62	-604.35	788.67	-183.04	-548.75	624.43	-157.76	-708.62	717.46	235.67	-1033.1	70.154	87.816	-587.55	1021.1	203.48	-968.4	90.392	130.59	-371.25	293.74	-85.944	-929.98	116.49	41.751	-385.04	290.53	-24.203	-648.49	1674.2	2.9733	-650.48	1669.2	144.66	-767.89	726.15	232.79	-782.31	1409.5	184.73	-355.53	209.71	-23.866	-610.81	1297.9	314.04	-330.63	110.77	15.312	-576.77	706.13	-174.51	-627.38	1135.6	363.18	-751.72	812.24	246.08	-397.14	30.852	-35.224	-777.11	1181.9	28.692	-738.7	1136.6	-171.54	-350.47	76.636	-81.021	-657.93	1102	275.66
444	2.22	-411.33	871.61	384.33	-134.65	117.09	-59.299	-224.65	71.207	-118.02	-407.81	370.68	-25.639	-480.87	886.63	385.57	-508.7	488.02	-123.07	-423.5	914.44	325.16	-474.68	1678.5	124.14	-609.79	1476.8	239.57	-506.76	1031	362.6	-185.64	100.13	-39.607	-655.4	1328.5	-213.92	-628.3	1025.9	-272.62	-515.2	727.73	-167.44	-702.22	1161.3	-257.76	-497.64	1274.4	40.532	-634.01	1512.3	-131.75	-596.3	859.54	-288.99	-559.49	1006	-116.15	-777.73	645	222.3	-844.97	268.82	169.9	-666.39	898.6	-285.32	-790.36	1054.2	74.918	-808	507.01	205.77	-476.28	1685.4	19.263	-589.71	896.67	-231.69	-726.58	1537.2	69.21	-787.18	1051.5	-33.702	-763.52	28.736	75.676	-812.33	47.496	67.864	-857.71	24.789	162.56	-805.95	505.92	56.262	-561.03	1448.2	38.765	-875.58	196.25	99.602	-805.77	353.55	119.49	-488.93	489.43	18.438	-840.86	274.66	108.65	-598.59	788.61	-183.39	-543.26	624.4	-157.65	-703.76	717.07	235.22	-1032.7	71.866	88.322	-581.79	1020.4	202.88	-967.78	91.562	131.02	-367.45	292.69	-85.013	-929.27	117.35	42.108	-381.78	289.47	-23.45	-642.93	1673.7	2.1001	-645	1668.8	143.79	-763.02	725.98	232.49	-776.82	1409.2	183.84	-352.71	208.52	-23.003	-605.68	1297.4	313.3	-328.5	109.34	16.164	-571.15	706.07	-174.58	-622.65	1135.2	362.47	-746.49	812.01	245.74	-395.65	30.824	-34.837	-771.38	1181.4	28.251	-733.08	1135.8	-172	-348.26	75.734	-80.322	-653.37	1101.6	274.98
445	2.225	-407.47	870.58	383.97	-132.19	113.05	-57.462	-222.52	68.647	-116.72	-404.22	369.81	-24.997	-476.94	885.84	385.16	-503.75	487.79	-123.14	-419.46	913.39	324.74	-469.14	1678.3	123.36	-604.22	1476.4	238.79	-502.36	1030.2	362.05	-183.45	96.619	-38.021	-649.67	1327.7	-214.59	-623.1	1024.8	-273.03	-509.45	727.75	-167.44	-696.51	1160.5	-258.2	-491.9	1274	39.765	-628.3	1511.7	-132.63	-591.8	858.25	-289.35	-553.8	1005.7	-116.78	-773.07	644.9	221.98	-842.81	269.2	169.95	-661.73	897.69	-285.86	-784.65	1053.9	74.367	-803.93	507.09	205.55	-470.67	1685.1	18.492	-585.14	895.37	-232.04	-720.94	1536.8	68.299	-781.6	1051.3	-34.252	-763.56	28.685	75.547	-812.21	47.492	67.954	-857.63	24.782	162.54	-802.1	505.93	56.084	-555.37	1447.8	37.963	-874.14	196.76	99.798	-803.05	353.54	119.39	-484.84	488.98	18.413	-838.79	274.92	108.69	-592.73	788.7	-183.74	-537.68	624.51	-157.52	-698.79	716.7	234.74	-1032.2	73.682	88.854	-575.98	1019.6	202.24	-967.11	92.809	131.47	-363.67	291.73	-84.067	-928.49	118.27	42.487	-378.62	288.49	-22.71	-637.32	1673.3	1.2177	-639.47	1668.4	142.91	-758.05	725.82	232.17	-771.29	1408.9	182.94	-350.03	207.38	-22.157	-600.52	1297	312.54	-326.57	107.95	16.974	-565.45	706.15	-174.63	-617.93	1134.8	361.75	-741.17	811.8	245.4	-394.39	30.952	-34.555	-765.62	1181	27.848	-727.44	1135.1	-172.49	-346.2	74.916	-79.686	-648.74	1101.2	274.25
446	2.23	-403.72	869.53	383.62	-129.86	108.86	-55.488	-220.5	66.051	-115.38	-400.69	369.03	-24.387	-473.1	885.07	384.77	-498.75	487.71	-123.28	-415.49	912.32	324.34	-463.55	1678.1	122.57	-598.59	1476.1	237.98	-498.01	1029.4	361.5	-181.39	93.01	-36.352	-643.91	1327	-215.28	-617.86	1023.8	-273.44	-503.63	727.92	-167.39	-690.76	1159.7	-258.65	-486.13	1273.7	38.948	-622.59	1511	-133.53	-587.27	857.03	-289.72	-548.11	1005.6	-117.47	-768.29	644.81	221.65	-840.56	269.63	170.02	-657.02	896.83	-286.42	-778.93	1053.5	73.861	-799.73	507.2	205.31	-465.03	1684.8	17.713	-580.52	894.13	-232.41	-715.27	1536.6	67.387	-776.02	1051.1	-34.752	-763.6	28.631	75.415	-812.07	47.489	68.05	-857.52	24.781	162.52	-798.12	505.97	55.897	-549.67	1447.4	37.139	-872.62	197.33	99.998	-800.24	353.57	119.28	-480.87	488.6	18.341	-836.64	275.21	108.73	-586.78	788.93	-184.07	-532.04	624.76	-157.39	-693.72	716.36	234.24	-1031.7	75.608	89.404	-570.11	1018.9	201.55	-966.38	94.138	131.94	-359.92	290.88	-83.133	-927.65	119.24	42.886	-375.57	287.59	-22.009	-631.68	1673	0.32751	-633.9	1668.1	142.02	-752.97	725.67	231.85	-765.74	1408.7	182.05	-347.46	206.33	-21.352	-595.34	1296.6	311.77	-324.79	106.62	17.722	-559.66	706.38	-174.65	-613.21	1134.5	361	-735.77	811.59	245.06	-393.3	31.228	-34.38	-759.86	1180.6	27.492	-721.78	1134.4	-172.99	-344.23	74.193	-79.127	-644.04	1100.9	273.49
447	2.235	-400.06	868.48	383.3	-127.63	104.59	-53.42	-218.56	63.454	-114.02	-397.21	368.35	-23.833	-469.37	884.31	384.39	-493.72	487.77	-123.5	-411.6	911.24	323.97	-457.92	1677.9	121.78	-592.91	1475.8	237.16	-493.69	1028.7	360.94	-179.46	89.368	-34.637	-638.14	1326.3	-215.97	-612.58	1022.9	-273.86	-497.76	728.22	-167.29	-684.98	1159	-259.11	-480.34	1273.5	38.081	-616.87	1510.5	-134.43	-582.69	855.9	-290.12	-542.45	1005.6	-118.22	-763.39	644.72	221.29	-838.21	270.1	170.09	-652.27	896.04	-286.98	-773.2	1053.2	73.406	-795.38	507.32	205.06	-459.34	1684.7	16.928	-575.86	892.98	-232.8	-709.55	1536.4	66.477	-770.46	1051.1	-35.198	-763.63	28.575	75.281	-811.92	47.485	68.148	-857.41	24.79	162.49	-794.01	506.02	55.703	-543.95	1447.2	36.293	-871.02	197.96	100.2	-797.31	353.63	119.15	-477.04	488.3	18.213	-834.39	275.56	108.76	-580.77	789.3	-184.4	-526.35	625.16	-157.29	-688.55	716.04	233.73	-1031.1	77.656	89.965	-564.19	1018.3	200.82	-965.58	95.554	132.42	-356.19	290.12	-82.241	-926.73	120.28	43.3	-372.59	286.79	-21.367	-625.99	1672.8	-0.56861	-628.28	1667.9	141.13	-747.8	725.54	231.51	-760.16	1408.6	181.16	-344.97	205.37	-20.61	-590.14	1296.2	310.98	-323.15	105.38	18.391	-553.82	706.75	-174.67	-608.5	1134.2	360.22	-730.27	811.4	244.7	-392.33	31.636	-34.311	-754.08	1180.4	27.188	-716.11	1133.8	-173.51	-342.34	73.563	-78.653	-639.3	1100.6	272.68
448	2.24	-396.52	867.42	383.01	-125.51	100.29	-51.306	-216.7	60.882	-112.68	-393.78	367.78	-23.359	-465.74	883.57	384.02	-488.65	487.96	-123.81	-407.8	910.16	323.61	-452.24	1677.9	120.98	-587.18	1475.6	236.33	-489.42	1028	360.38	-177.65	85.748	-32.916	-632.34	1325.7	-216.67	-607.28	1022	-274.28	-491.85	728.66	-167.16	-679.18	1158.4	-259.57	-474.52	1273.4	37.163	-611.15	1510	-135.35	-578.08	854.86	-290.53	-536.8	1005.7	-119.04	-758.36	644.65	220.91	-835.76	270.63	170.17	-647.49	895.33	-287.56	-767.47	1053	73.006	-790.88	507.47	204.81	-453.61	1684.6	16.136	-571.17	891.91	-233.21	-703.79	1536.3	65.572	-764.91	1051.1	-35.588	-763.65	28.517	75.147	-811.76	47.482	68.248	-857.28	24.809	162.45	-789.76	506.1	55.506	-538.19	1447	35.427	-869.34	198.65	100.41	-794.27	353.73	119.02	-473.32	488.1	18.023	-832.04	275.94	108.8	-574.69	789.83	-184.73	-520.63	625.68	-157.22	-683.27	715.75	233.2	-1030.4	79.832	90.529	-558.22	1017.6	200.05	-964.71	97.062	132.92	-352.48	289.48	-81.417	-925.73	121.4	43.729	-369.68	286.09	-20.807	-620.26	1672.6	-1.4689	-622.62	1667.8	140.23	-742.51	725.42	231.15	-754.55	1408.6	180.29	-342.57	204.51	-19.951	-584.91	1296	310.17	-321.62	104.24	18.968	-547.92	707.27	-174.7	-603.78	1133.9	359.42	-724.7	811.23	244.34	-391.47	32.154	-34.344	-748.3	1180.2	26.941	-710.41	1133.3	-174.04	-340.52	73.02	-78.27	-634.51	1100.4	271.83
